<svg width="128" height="128" viewBox="0 0 128 128" fill="none" xmlns="http://www.w3.org/2000/svg">
<path d="M40.6934 19.04C41.6427 18.5174 42.6667 19.3174 42.6667 20.4107V92.7094C42.6667 93.8987 41.8507 94.9067 40.8 95.4614C40.7644 95.4789 40.7288 95.4966 40.6934 95.5147L28.16 102.661C19.4134 107.675 12.2134 103.515 12.2134 93.3814V41.4934C12.2134 38.1334 14.6134 33.9734 17.6 32.2667L40.6934 19.04V19.04ZM78.5174 32.5494C78.9618 32.7696 79.3359 33.1093 79.5978 33.5305C79.8598 33.9516 79.999 34.4374 80 34.9334V105.083C79.9996 105.534 79.8848 105.977 79.6664 106.372C79.4479 106.766 79.133 107.099 78.751 107.339C78.3689 107.579 77.9324 107.718 77.482 107.743C77.0317 107.768 76.5824 107.678 76.176 107.483L53.5094 96.5654C53.0576 96.3477 52.6763 96.0071 52.4093 95.5826C52.1424 95.1581 52.0005 94.6669 52 94.1654V23.7174C51.9992 23.2632 52.1143 22.8163 52.3345 22.4191C52.5547 22.0218 52.8728 21.6875 53.2585 21.4476C53.6441 21.2077 54.0847 21.0704 54.5384 21.0485C54.992 21.0267 55.4438 21.121 55.8507 21.3227L78.5174 32.5494ZM117.333 34.6134V86.5067C117.333 89.8667 114.933 94.0267 111.947 95.7334L93.3281 106.405C92.9224 106.638 92.4626 106.76 91.9949 106.76C91.5271 106.759 91.0678 106.635 90.6631 106.4C90.2584 106.166 89.9225 105.829 89.6891 105.423C89.4557 105.018 89.333 104.558 89.3334 104.091V33.76C89.3335 33.29 89.4579 32.8283 89.6939 32.4219C89.93 32.0154 90.2692 31.6785 90.6774 31.4454L101.387 25.3334C110.133 20.32 117.333 24.48 117.333 34.6134Z" fill="#4169E1"/>
</svg>
